<?xml version="1.0" standalone="no"?>
<!DOCTYPE svg PUBLIC "-//W3C//DTD SVG 20010904//EN"
 "http://www.w3.org/TR/2001/REC-SVG-20010904/DTD/svg10.dtd">
<svg version="1.0" xmlns="http://www.w3.org/2000/svg"
 width="200.000000pt" height="200.000000pt" viewBox="0 0 200.000000 200.000000"
 preserveAspectRatio="xMidYMid meet">

<g transform="translate(0.000000,200.000000) scale(0.100000,-0.100000)"
fill="#000000" stroke="none">
<path d="M846 1884 c-319 -58 -582 -309 -662 -634 -26 -106 -24 -287 5 -395
42 -157 134 -312 243 -410 85 -77 117 -93 47 -24 -106 105 -171 214 -211 356
-28 100 -31 275 -5 373 40 151 140 311 251 401 72 59 216 133 300 154 313 79
646 -53 821 -324 198 -306 151 -703 -114 -961 -70 -68 -38 -51 47 25 179 161
289 437 268 674 -14 156 -56 278 -141 406 -184 278 -517 419 -849 359z"/>
<path d="M951 1402 c-121 -211 -203 -425 -203 -527 0 -102 45 -182 130 -228
67 -37 125 -43 196 -23 106 31 186 134 186 241 l0 50 -29 -61 c-27 -58 -70
-102 -113 -117 -15 -5 -18 0 -18 33 0 21 -5 50 -11 64 -14 30 4 57 90 141 28
28 51 53 51 58 0 23 -37 -2 -98 -68 l-69 -76 -28 37 c-21 28 -26 41 -18 53 17
27 103 88 144 101 21 7 39 18 39 24 0 16 -110 238 -157 319 l-40 69 -52 -90z
m-63 -394 c24 -11 65 -41 91 -67 87 -85 117 -175 86 -256 -17 -45 -35 -60 -35
-28 0 47 -161 313 -190 313 -18 0 -11 -14 35 -75 52 -68 135 -227 135 -257 0
-18 -5 -20 -31 -14 -86 17 -159 84 -184 170 -15 50 -21 200 -9 231 8 19 36 15
102 -17z"/>
<path d="M334 247 c-3 -8 -4 -43 -2 -78 3 -58 5 -64 26 -67 19 -3 22 1 22 27
0 24 4 31 20 31 16 0 20 -7 20 -30 0 -23 4 -30 20 -30 18 0 20 7 20 80 0 73
-2 80 -20 80 -16 0 -20 -7 -20 -30 0 -23 -5 -30 -19 -30 -14 0 -21 8 -23 27
-3 30 -34 44 -44 20z"/>
<path d="M490 228 c0 -18 9 -46 20 -63 11 -16 20 -38 20 -47 0 -12 8 -18 25
-18 18 0 25 5 25 20 0 12 9 33 21 49 26 36 23 86 -6 86 -15 0 -21 -8 -23 -32
-2 -20 -9 -33 -17 -33 -8 0 -15 13 -17 33 -2 24 -8 33 -25 35 -20 3 -23 -1
-23 -30z"/>
<path d="M645 238 c-3 -13 -5 -49 -3 -79 l3 -54 47 -3 c60 -4 88 20 88 76 0
56 -18 74 -78 80 -48 4 -51 3 -57 -20z m80 -59 c0 -24 -5 -35 -17 -37 -14 -3
-18 4 -18 31 0 18 3 37 7 41 15 14 28 -2 28 -35z"/>
<path d="M804 246 c-3 -7 -4 -42 -2 -77 3 -58 5 -64 26 -67 18 -3 22 1 22 22
0 19 5 26 20 26 15 0 20 -7 20 -26 0 -21 4 -25 23 -22 16 2 23 11 25 32 2 16
-1 33 -7 39 -6 6 -11 25 -11 43 0 24 -5 33 -22 38 -40 10 -88 7 -94 -8z m74
-44 c2 -7 -3 -12 -12 -12 -9 0 -16 7 -16 16 0 17 22 14 28 -4z"/>
<path d="M978 249 c-14 -8 -18 -23 -18 -69 0 -65 12 -80 65 -80 53 0 65 15 65
80 0 48 -4 61 -19 70 -25 13 -71 12 -93 -1z m62 -69 c0 -29 -4 -40 -15 -40
-11 0 -15 11 -15 40 0 29 4 40 15 40 11 0 15 -11 15 -40z"/>
<path d="M1210 180 c0 -73 2 -80 20 -80 17 0 20 7 20 41 0 36 2 40 15 29 8 -7
21 -10 29 -7 11 4 16 -3 18 -26 2 -24 8 -33 26 -35 21 -3 22 0 22 73 0 61 -3
77 -17 82 -11 4 -23 -3 -38 -21 l-22 -27 -17 25 c-9 14 -25 26 -36 26 -18 0
-20 -7 -20 -80z"/>
<path d="M1408 249 c-14 -8 -18 -23 -18 -69 0 -65 12 -80 65 -80 53 0 65 15
65 80 0 48 -4 61 -19 70 -25 13 -71 12 -93 -1z m62 -70 c0 -33 -3 -40 -17 -37
-32 6 -30 78 2 78 11 0 15 -11 15 -41z"/>
<path d="M1550 180 c0 -73 2 -80 20 -80 17 0 20 7 20 41 0 47 15 44 36 -8 10
-23 20 -33 32 -31 14 3 17 15 17 78 0 68 -2 75 -20 75 -12 0 -21 -9 -25 -23
l-5 -24 -24 26 c-42 45 -51 35 -51 -54z"/>
<path d="M1110 180 c0 -16 7 -20 35 -20 28 0 35 4 35 20 0 16 -7 20 -35 20
-28 0 -35 -4 -35 -20z"/>
</g>
</svg>
