<?xml version="1.0" standalone="no"?>
<!DOCTYPE svg PUBLIC "-//W3C//DTD SVG 20010904//EN"
 "http://www.w3.org/TR/2001/REC-SVG-20010904/DTD/svg10.dtd">
<svg version="1.0" xmlns="http://www.w3.org/2000/svg"
 width="200.000000pt" height="200.000000pt" viewBox="0 0 200.000000 200.000000"
 preserveAspectRatio="xMidYMid meet">

<g transform="translate(0.000000,200.000000) scale(0.100000,-0.100000)"
fill="#000000" stroke="none">
<path d="M860 1889 c-344 -57 -625 -340 -686 -690 -55 -317 88 -652 356 -832
52 -35 45 -25 -22 30 -107 87 -201 238 -240 382 -28 106 -28 277 1 384 69 260
278 469 538 538 108 29 278 29 386 0 261 -69 464 -272 538 -537 32 -110 32
-277 1 -387 -40 -141 -105 -251 -211 -356 -64 -62 -64 -63 -18 -31 67 47 147
134 201 218 171 263 179 593 23 872 -57 102 -205 250 -307 307 -171 96 -373
133 -560 102z"/>
<path d="M971 1439 c-18 -30 -63 -117 -101 -194 -129 -263 -153 -388 -95 -494
37 -67 85 -107 154 -128 102 -29 196 -1 268 81 44 50 63 101 63 167 l0 44 -29
-61 c-27 -58 -70 -102 -113 -117 -15 -5 -18 0 -18 33 0 21 -5 50 -11 64 -14
30 4 57 90 141 28 28 51 53 51 58 0 23 -37 -2 -98 -68 l-69 -76 -28 37 c-21
28 -26 41 -18 53 17 27 103 88 144 101 21 7 39 19 39 26 0 14 -136 288 -173
348 l-25 39 -31 -54z m-83 -431 c24 -11 65 -41 91 -67 87 -85 117 -175 86
-256 -17 -45 -35 -60 -35 -28 0 47 -161 313 -190 313 -18 0 -11 -14 35 -75 52
-68 135 -227 135 -257 0 -18 -5 -20 -31 -14 -86 17 -159 84 -184 170 -15 50
-21 200 -9 231 8 19 36 15 102 -17z"/>
<path d="M334 246 c-3 -7 -4 -42 -2 -77 3 -58 5 -64 26 -67 19 -3 22 1 22 28
0 25 4 31 18 28 10 -2 18 -14 20 -31 2 -19 9 -27 23 -27 17 0 19 8 19 80 0 72
-2 80 -19 80 -14 0 -21 -8 -23 -27 -2 -17 -10 -29 -20 -31 -14 -3 -18 3 -18
27 0 24 -4 31 -20 31 -11 0 -23 -6 -26 -14z"/>
<path d="M490 225 c0 -22 8 -47 20 -62 11 -14 20 -34 20 -44 0 -14 7 -19 25
-19 17 0 25 6 25 18 0 9 9 31 20 47 11 17 20 45 20 63 0 29 -3 33 -22 30 -16
-2 -24 -12 -28 -32 -6 -38 -24 -38 -30 0 -4 20 -12 30 -28 32 -19 3 -22 -1
-22 -33z"/>
<path d="M645 237 c-4 -13 -5 -48 -3 -78 l3 -54 51 -3 c67 -4 84 12 84 78 0
59 -23 80 -87 80 -36 0 -43 -3 -48 -23z m80 -58 c0 -24 -5 -34 -15 -34 -16 0
-25 37 -16 62 10 26 31 8 31 -28z"/>
<path d="M804 246 c-3 -7 -4 -42 -2 -77 3 -58 5 -64 26 -67 18 -3 22 1 22 22
0 19 5 26 20 26 15 0 20 -7 20 -25 0 -20 5 -25 25 -25 22 0 25 4 25 34 0 19
-4 38 -10 41 -5 3 -10 21 -10 40 0 37 -12 45 -71 45 -24 0 -42 -5 -45 -14z
m68 -41 c0 -5 -5 -11 -11 -13 -6 -2 -11 4 -11 13 0 9 5 15 11 13 6 -2 11 -8
11 -13z"/>
<path d="M978 249 c-14 -8 -18 -23 -18 -67 0 -32 5 -63 12 -70 16 -16 90 -16
106 0 7 7 12 38 12 70 0 46 -4 59 -19 68 -25 13 -71 12 -93 -1z m62 -69 c0
-29 -4 -40 -15 -40 -11 0 -15 11 -15 40 0 29 4 40 15 40 11 0 15 -11 15 -40z"/>
<path d="M1210 179 c0 -78 1 -80 23 -77 16 2 23 11 27 33 4 23 11 30 28 31 18
0 22 -5 22 -33 0 -29 3 -33 25 -33 25 0 25 1 25 80 0 78 0 80 -25 80 -16 0
-29 -9 -38 -26 l-14 -26 -16 26 c-10 14 -26 26 -37 26 -18 0 -20 -7 -20 -81z"/>
<path d="M1408 249 c-14 -8 -18 -23 -18 -67 0 -67 11 -82 58 -82 60 0 72 13
72 80 0 48 -4 61 -19 70 -25 13 -71 12 -93 -1z m62 -69 c0 -29 -4 -40 -15 -40
-11 0 -15 11 -15 40 0 29 4 40 15 40 11 0 15 -11 15 -40z"/>
<path d="M1550 180 c0 -73 2 -80 20 -80 16 0 20 7 20 36 0 44 21 42 35 -4 7
-24 15 -32 32 -32 23 0 24 2 21 78 -3 71 -5 77 -25 80 -19 3 -23 -1 -23 -24
l0 -28 -28 27 c-45 43 -52 36 -52 -53z"/>
<path d="M1110 180 c0 -16 7 -20 35 -20 28 0 35 4 35 20 0 16 -7 20 -35 20
-28 0 -35 -4 -35 -20z"/>
</g>
</svg>
